<svg width="640" height="640" viewBox="0 0 640 640" fill="none" xmlns="http://www.w3.org/2000/svg">
  <rect width="640" height="640" rx="36" fill="#FFFDF8"/>
  <rect x="28" y="28" width="584" height="584" rx="28" fill="#FFFFFF" stroke="#D8CCBC" stroke-width="8"/>
  <rect x="76" y="76" width="152" height="152" rx="12" fill="#1C1714"/>
  <rect x="104" y="104" width="96" height="96" rx="6" fill="#FFFFFF"/>
  <rect x="120" y="120" width="64" height="64" rx="4" fill="#1C1714"/>
  <rect x="412" y="76" width="152" height="152" rx="12" fill="#1C1714"/>
  <rect x="440" y="104" width="96" height="96" rx="6" fill="#FFFFFF"/>
  <rect x="456" y="120" width="64" height="64" rx="4" fill="#1C1714"/>
  <rect x="76" y="412" width="152" height="152" rx="12" fill="#1C1714"/>
  <rect x="104" y="440" width="96" height="96" rx="6" fill="#FFFFFF"/>
  <rect x="120" y="456" width="64" height="64" rx="4" fill="#1C1714"/>
  <g fill="#1C1714">
    <rect x="272" y="88" width="24" height="24" rx="4"/>
    <rect x="320" y="88" width="24" height="24" rx="4"/>
    <rect x="368" y="88" width="24" height="24" rx="4"/>
    <rect x="272" y="136" width="24" height="24" rx="4"/>
    <rect x="320" y="136" width="72" height="24" rx="4"/>
    <rect x="256" y="184" width="24" height="24" rx="4"/>
    <rect x="304" y="184" width="24" height="24" rx="4"/>
    <rect x="352" y="184" width="24" height="24" rx="4"/>
    <rect x="272" y="248" width="24" height="24" rx="4"/>
    <rect x="320" y="248" width="24" height="24" rx="4"/>
    <rect x="368" y="248" width="24" height="24" rx="4"/>
    <rect x="416" y="264" width="24" height="24" rx="4"/>
    <rect x="464" y="264" width="24" height="24" rx="4"/>
    <rect x="512" y="264" width="24" height="24" rx="4"/>
    <rect x="256" y="296" width="72" height="24" rx="4"/>
    <rect x="352" y="296" width="24" height="24" rx="4"/>
    <rect x="400" y="312" width="24" height="24" rx="4"/>
    <rect x="448" y="312" width="72" height="24" rx="4"/>
    <rect x="544" y="312" width="24" height="24" rx="4"/>
    <rect x="272" y="344" width="24" height="24" rx="4"/>
    <rect x="320" y="344" width="72" height="24" rx="4"/>
    <rect x="416" y="360" width="24" height="24" rx="4"/>
    <rect x="464" y="360" width="24" height="24" rx="4"/>
    <rect x="512" y="360" width="56" height="24" rx="4"/>
    <rect x="256" y="392" width="24" height="24" rx="4"/>
    <rect x="304" y="392" width="24" height="24" rx="4"/>
    <rect x="352" y="392" width="24" height="24" rx="4"/>
    <rect x="400" y="408" width="24" height="24" rx="4"/>
    <rect x="448" y="408" width="72" height="24" rx="4"/>
    <rect x="544" y="408" width="24" height="24" rx="4"/>
    <rect x="272" y="456" width="24" height="24" rx="4"/>
    <rect x="320" y="456" width="72" height="24" rx="4"/>
    <rect x="416" y="456" width="24" height="24" rx="4"/>
    <rect x="464" y="456" width="24" height="24" rx="4"/>
    <rect x="512" y="456" width="24" height="24" rx="4"/>
    <rect x="256" y="504" width="72" height="24" rx="4"/>
    <rect x="352" y="504" width="24" height="24" rx="4"/>
    <rect x="400" y="504" width="24" height="24" rx="4"/>
    <rect x="448" y="504" width="24" height="24" rx="4"/>
    <rect x="496" y="504" width="72" height="24" rx="4"/>
    <rect x="272" y="552" width="24" height="24" rx="4"/>
    <rect x="320" y="552" width="24" height="24" rx="4"/>
    <rect x="368" y="552" width="24" height="24" rx="4"/>
    <rect x="448" y="552" width="24" height="24" rx="4"/>
    <rect x="496" y="552" width="24" height="24" rx="4"/>
  </g>
  <text x="320" y="614" text-anchor="middle" fill="#7A6855" font-family="PingFang SC, Microsoft YaHei, sans-serif" font-size="28">
    Replace with your official account QR code
  </text>
</svg>
